# Blender 4.4.3
# www.blender.org
mtllib szafa.mtl
o Cube
v 1.034863 2.572470 -1.171596
v 1.034863 -3.227530 -1.171596
v 1.034863 2.572470 1.828404
v 1.034863 -3.227530 1.828404
v -0.965137 2.572470 -1.171596
v -0.965137 -3.227530 -1.171596
v -0.965137 2.572470 1.828404
v -0.965137 -3.227530 1.828404
vn -0.0000 1.0000 -0.0000
vn -0.0000 -0.0000 1.0000
vn -1.0000 -0.0000 -0.0000
vn -0.0000 -1.0000 -0.0000
vn 1.0000 -0.0000 -0.0000
vn -0.0000 -0.0000 -1.0000
vt 0.731604 0.500000
vt 0.577201 0.654403
vt 0.577201 0.500000
vt 0.422799 0.808805
vt 0.422799 0.654403
vt 0.577201 0.191195
vt 0.422799 0.345597
vt 0.422799 0.191195
vt 0.422799 0.500000
vt 0.268396 0.654403
vt 0.268396 0.500000
vt 0.577201 0.345597
vt 0.731604 0.654403
vt 0.577201 0.808805
s 0
usemtl Material
f 5/1/1 3/2/1 1/3/1
f 3/2/2 8/4/2 4/5/2
f 7/6/3 6/7/3 8/8/3
f 2/9/4 8/10/4 6/11/4
f 1/3/5 4/5/5 2/9/5
f 5/12/6 2/9/6 6/7/6
f 5/1/1 7/13/1 3/2/1
f 3/2/2 7/14/2 8/4/2
f 7/6/3 5/12/3 6/7/3
f 2/9/4 4/5/4 8/10/4
f 1/3/5 3/2/5 4/5/5
f 5/12/6 1/3/6 2/9/6
o Cube.003
v 0.920000 2.500000 -1.100000
v 0.920000 1.400000 -1.100000
v 0.920000 2.500000 -0.100000
v 0.920000 1.400000 -0.100000
v -1.080000 2.500000 -1.100000
v -1.080000 1.400000 -1.100000
v -1.080000 2.500000 -0.100000
v -1.080000 1.400000 -0.100000
vn -0.0000 1.0000 -0.0000
vn -0.0000 -0.0000 1.0000
vn -1.0000 -0.0000 -0.0000
vn -0.0000 -1.0000 -0.0000
vn 1.0000 -0.0000 -0.0000
vn -0.0000 -0.0000 -1.0000
vt 0.731604 0.500000
vt 0.577201 0.654403
vt 0.577201 0.500000
vt 0.422799 0.808805
vt 0.422799 0.654403
vt 0.577201 0.191195
vt 0.422799 0.345597
vt 0.422799 0.191195
vt 0.422799 0.500000
vt 0.268396 0.654403
vt 0.268396 0.500000
vt 0.577201 0.345597
vt 0.731604 0.654403
vt 0.577201 0.808805
s 0
usemtl Material
f 13/15/7 11/16/7 9/17/7
f 11/16/8 16/18/8 12/19/8
f 15/20/9 14/21/9 16/22/9
f 10/23/10 16/24/10 14/25/10
f 9/17/11 12/19/11 10/23/11
f 13/26/12 10/23/12 14/21/12
f 13/15/7 15/27/7 11/16/7
f 11/16/8 15/28/8 16/18/8
f 15/20/9 13/26/9 14/21/9
f 10/23/10 12/19/10 16/24/10
f 9/17/11 11/16/11 12/19/11
f 13/26/12 9/17/12 10/23/12
o Cube.001
v 0.920000 1.350000 -1.100000
v 0.920000 -3.150000 -1.100000
v 0.920000 1.350000 0.300000
v 0.920000 -3.150000 0.300000
v -1.080000 1.350000 -1.100000
v -1.080000 -3.150000 -1.100000
v -1.080000 1.350000 0.300000
v -1.080000 -3.150000 0.300000
vn -0.0000 1.0000 -0.0000
vn -0.0000 -0.0000 1.0000
vn -1.0000 -0.0000 -0.0000
vn -0.0000 -1.0000 -0.0000
vn 1.0000 -0.0000 -0.0000
vn -0.0000 -0.0000 -1.0000
vt 0.731604 0.500000
vt 0.577201 0.654403
vt 0.577201 0.500000
vt 0.422799 0.808805
vt 0.422799 0.654403
vt 0.577201 0.191195
vt 0.422799 0.345597
vt 0.422799 0.191195
vt 0.422799 0.500000
vt 0.268396 0.654403
vt 0.268396 0.500000
vt 0.577201 0.345597
vt 0.731604 0.654403
vt 0.577201 0.808805
s 0
usemtl Material
f 21/29/13 19/30/13 17/31/13
f 19/30/14 24/32/14 20/33/14
f 23/34/15 22/35/15 24/36/15
f 18/37/16 24/38/16 22/39/16
f 17/31/17 20/33/17 18/37/17
f 21/40/18 18/37/18 22/35/18
f 21/29/13 23/41/13 19/30/13
f 19/30/14 23/42/14 24/32/14
f 23/34/15 21/40/15 22/35/15
f 18/37/16 20/33/16 24/38/16
f 17/31/17 19/30/17 20/33/17
f 21/40/18 17/31/18 18/37/18
o Cube.002
v 0.920000 1.350000 0.350000
v 0.920000 -3.150000 0.350000
v 0.920000 1.350000 1.750000
v 0.920000 -3.150000 1.750000
v -1.080000 1.350000 0.350000
v -1.080000 -3.150000 0.350000
v -1.080000 1.350000 1.750000
v -1.080000 -3.150000 1.750000
vn -0.5557 -0.2470 0.7938
vn -0.5557 0.2470 0.7939
vn -0.5557 -0.2470 -0.7939
vn -0.5557 0.2470 -0.7938
vn 0.5557 -0.2470 0.7939
vn 0.5557 0.2470 0.7938
vn 0.5557 -0.2470 -0.7938
vn 0.5557 0.2470 -0.7939
vt 0.731604 0.500000
vt 0.577201 0.654403
vt 0.577201 0.500000
vt 0.422799 0.808805
vt 0.422799 0.654403
vt 0.577201 0.191195
vt 0.422799 0.345597
vt 0.422799 0.191195
vt 0.422799 0.500000
vt 0.268396 0.654403
vt 0.268396 0.500000
vt 0.577201 0.345597
vt 0.731604 0.654403
vt 0.577201 0.808805
s 1
usemtl Material
f 27/43/21 29/44/23 25/45/19
f 32/44/26 27/46/21 28/47/22
f 30/48/24 31/49/25 32/50/26
f 32/51/26 26/52/20 30/53/24
f 28/45/22 25/47/19 26/51/20
f 26/54/20 29/51/23 30/49/24
f 27/43/21 31/55/25 29/44/23
f 32/44/26 31/56/25 27/46/21
f 30/48/24 29/54/23 31/49/25
f 32/51/26 28/47/22 26/52/20
f 28/45/22 27/44/21 25/47/19
f 26/54/20 25/45/19 29/51/23
o Cube.004
v 0.930873 2.500000 -0.077122
v 0.930873 1.400000 -0.077122
v 0.930873 2.500000 1.762878
v 0.930873 1.400000 1.762878
v -1.069127 2.500000 -0.077122
v -1.069127 1.400000 -0.077122
v -1.069127 2.500000 1.762878
v -1.069127 1.400000 1.762878
vn -0.0000 1.0000 -0.0000
vn -0.0000 -0.0000 1.0000
vn -1.0000 -0.0000 -0.0000
vn -0.0000 -1.0000 -0.0000
vn 1.0000 -0.0000 -0.0000
vn -0.0000 -0.0000 -1.0000
vt 0.731604 0.500000
vt 0.577201 0.654403
vt 0.577201 0.500000
vt 0.422799 0.808805
vt 0.422799 0.654403
vt 0.577201 0.191195
vt 0.422799 0.345597
vt 0.422799 0.191195
vt 0.422799 0.500000
vt 0.268396 0.654403
vt 0.268396 0.500000
vt 0.577201 0.345597
vt 0.731604 0.654403
vt 0.577201 0.808805
s 0
usemtl Material
f 37/57/27 35/58/27 33/59/27
f 35/58/28 40/60/28 36/61/28
f 39/62/29 38/63/29 40/64/29
f 34/65/30 40/66/30 38/67/30
f 33/59/31 36/61/31 34/65/31
f 37/68/32 34/65/32 38/63/32
f 37/57/27 39/69/27 35/58/27
f 35/58/28 39/70/28 40/60/28
f 39/62/29 37/68/29 38/63/29
f 34/65/30 36/61/30 40/66/30
f 33/59/31 35/58/31 36/61/31
f 37/68/32 33/59/32 34/65/32
o Cube.005
v -1.145000 -0.900000 0.580000
v -1.145000 -0.600000 0.580000
v -1.145000 -0.900000 0.520000
v -1.145000 -0.600000 0.520000
v -0.745000 -0.900000 0.580000
v -0.745000 -0.600000 0.580000
v -0.745000 -0.900000 0.520000
v -0.745000 -0.600000 0.520000
vn -1.0000 -0.0000 -0.0000
vn -0.0000 -0.0000 -1.0000
vn 1.0000 -0.0000 -0.0000
vn -0.0000 -0.0000 1.0000
vn -0.0000 -1.0000 -0.0000
vn -0.0000 1.0000 -0.0000
vt 0.625000 0.000000
vt 0.375000 0.250000
vt 0.375000 0.000000
vt 0.625000 0.250000
vt 0.375000 0.500000
vt 0.625000 0.500000
vt 0.375000 0.750000
vt 0.625000 0.750000
vt 0.375000 1.000000
vt 0.125000 0.750000
vt 0.125000 0.500000
vt 0.875000 0.500000
vt 0.625000 1.000000
vt 0.875000 0.750000
s 0
usemtl Material.001
f 42/71/33 43/72/33 41/73/33
f 44/74/34 47/75/34 43/72/34
f 48/76/35 45/77/35 47/75/35
f 46/78/36 41/79/36 45/77/36
f 47/75/37 41/80/37 43/81/37
f 44/82/38 46/78/38 48/76/38
f 42/71/33 44/74/33 43/72/33
f 44/74/34 48/76/34 47/75/34
f 48/76/35 46/78/35 45/77/35
f 46/78/36 42/83/36 41/79/36
f 47/75/37 45/77/37 41/80/37
f 44/82/38 42/84/38 46/78/38
o Cube.006
v -1.145000 -0.900000 0.130000
v -1.145000 -0.600000 0.130000
v -1.145000 -0.900000 0.070000
v -1.145000 -0.600000 0.070000
v -0.745000 -0.900000 0.130000
v -0.745000 -0.600000 0.130000
v -0.745000 -0.900000 0.070000
v -0.745000 -0.600000 0.070000
vn -1.0000 -0.0000 -0.0000
vn -0.0000 -0.0000 -1.0000
vn 1.0000 -0.0000 -0.0000
vn -0.0000 -0.0000 1.0000
vn -0.0000 -1.0000 -0.0000
vn -0.0000 1.0000 -0.0000
vt 0.625000 0.000000
vt 0.375000 0.250000
vt 0.375000 0.000000
vt 0.625000 0.250000
vt 0.375000 0.500000
vt 0.625000 0.500000
vt 0.375000 0.750000
vt 0.625000 0.750000
vt 0.375000 1.000000
vt 0.125000 0.750000
vt 0.125000 0.500000
vt 0.875000 0.500000
vt 0.625000 1.000000
vt 0.875000 0.750000
s 0
usemtl Material.001
f 50/85/39 51/86/39 49/87/39
f 52/88/40 55/89/40 51/86/40
f 56/90/41 53/91/41 55/89/41
f 54/92/42 49/93/42 53/91/42
f 55/89/43 49/94/43 51/95/43
f 52/96/44 54/92/44 56/90/44
f 50/85/39 52/88/39 51/86/39
f 52/88/40 56/90/40 55/89/40
f 56/90/41 54/92/41 53/91/41
f 54/92/42 50/97/42 49/93/42
f 55/89/43 53/91/43 49/94/43
f 52/96/44 50/98/44 54/92/44
o Cube.007
v -1.145000 1.600000 -0.220000
v -1.145000 1.900000 -0.220000
v -1.145000 1.600000 -0.280000
v -1.145000 1.900000 -0.280000
v -0.745000 1.600000 -0.220000
v -0.745000 1.900000 -0.220000
v -0.745000 1.600000 -0.280000
v -0.745000 1.900000 -0.280000
vn -1.0000 -0.0000 -0.0000
vn -0.0000 -0.0000 -1.0000
vn 1.0000 -0.0000 -0.0000
vn -0.0000 -0.0000 1.0000
vn -0.0000 -1.0000 -0.0000
vn -0.0000 1.0000 -0.0000
vt 0.625000 0.000000
vt 0.375000 0.250000
vt 0.375000 0.000000
vt 0.625000 0.250000
vt 0.375000 0.500000
vt 0.625000 0.500000
vt 0.375000 0.750000
vt 0.625000 0.750000
vt 0.375000 1.000000
vt 0.125000 0.750000
vt 0.125000 0.500000
vt 0.875000 0.500000
vt 0.625000 1.000000
vt 0.875000 0.750000
s 0
usemtl Material.001
f 58/99/45 59/100/45 57/101/45
f 60/102/46 63/103/46 59/100/46
f 64/104/47 61/105/47 63/103/47
f 62/106/48 57/107/48 61/105/48
f 63/103/49 57/108/49 59/109/49
f 60/110/50 62/106/50 64/104/50
f 58/99/45 60/102/45 59/100/45
f 60/102/46 64/104/46 63/103/46
f 64/104/47 62/106/47 61/105/47
f 62/106/48 58/111/48 57/107/48
f 63/103/49 61/105/49 57/108/49
f 60/110/50 58/112/50 62/106/50
o Cube.008
v -1.145000 1.600000 0.100000
v -1.145000 1.900000 0.100000
v -1.145000 1.600000 0.040000
v -1.145000 1.900000 0.040000
v -0.745000 1.600000 0.100000
v -0.745000 1.900000 0.100000
v -0.745000 1.600000 0.040000
v -0.745000 1.900000 0.040000
vn -1.0000 -0.0000 -0.0000
vn -0.0000 -0.0000 -1.0000
vn 1.0000 -0.0000 -0.0000
vn -0.0000 -0.0000 1.0000
vn -0.0000 -1.0000 -0.0000
vn -0.0000 1.0000 -0.0000
vt 0.625000 0.000000
vt 0.375000 0.250000
vt 0.375000 0.000000
vt 0.625000 0.250000
vt 0.375000 0.500000
vt 0.625000 0.500000
vt 0.375000 0.750000
vt 0.625000 0.750000
vt 0.375000 1.000000
vt 0.125000 0.750000
vt 0.125000 0.500000
vt 0.875000 0.500000
vt 0.625000 1.000000
vt 0.875000 0.750000
s 0
usemtl Material.001
f 66/113/51 67/114/51 65/115/51
f 68/116/52 71/117/52 67/114/52
f 72/118/53 69/119/53 71/117/53
f 70/120/54 65/121/54 69/119/54
f 71/117/55 65/122/55 67/123/55
f 68/124/56 70/120/56 72/118/56
f 66/113/51 68/116/51 67/114/51
f 68/116/52 72/118/52 71/117/52
f 72/118/53 70/120/53 69/119/53
f 70/120/54 66/125/54 65/121/54
f 71/117/55 69/119/55 65/122/55
f 68/124/56 66/126/56 70/120/56
